<svg width="257" height="145" viewBox="0 0 257 145" fill="none" xmlns="http://www.w3.org/2000/svg">
<path d="M5 140V53.211V9.62162L37.1125 31.7736L78.5208 58.9276M167.253 140V96.6055M78.5208 58.9276L167.253 9.62162V53.211V96.6055M78.5208 58.9276L32.8872 85.3671M167.253 96.6055H224.717H251.5M251.5 77.5H224.717M224.717 140V77.5M224.717 77.5H210H191.619C186.096 77.5 181.619 73.0228 181.619 67.5V6H214.717C220.24 6 224.717 10.4772 224.717 16V77.5Z" stroke="black" stroke-width="10" stroke-linecap="round"/>
<path d="M222 139.5V94M251.5 75H232C226.477 75 222 79.4772 222 85V94M222 94H251.5" stroke="#9A8BBA" stroke-opacity="0.34" stroke-width="9" stroke-linecap="round"/>
</svg>
